# xmcd CD database file
#
# Track frame offsets:
#	150
#	14507
#	31707
#	38262
#	55252
#	65687
#	86557
#	100815
#	117292
#	135840
#	156640
#	174390
#	192737
#
# Disc length: 2894 seconds
#
# Revision: 0
# Processed by: cddbd v1.5.2PL0 Copyright (c) Steve Scherf et al.
# Submitted via: CDex 1.70beta2
#
DISCID=a60b4c0d
DTITLE=Daniel Colin - BLUE MONK
DYEAR=1900
DGENRE=Jazz
TTITLE0=BLUE MONK
TTITLE1=WHAT'S NEW?
TTITLE2=BALLADE POUE UNE PRUNE
TTITLE3=BYE BYE BLACKBIRD
TTITLE4=TESTERDAYS
TTITLE5=J.B.BLUES
TTITLE6=TANGERINE
TTITLE7=JITTERBUG WALTZ
TTITLE8=THANK YOU STEPH!
TTITLE9=FALLING IN LOVE WITH LOVE
TTITLE10=EMBRACEABLE YOU
TTITLE11=MANOIE DE MES REVES
TTITLE12=BLUE MONK
EXTD=
EXTT0=
EXTT1=
EXTT2=
EXTT3=
EXTT4=
EXTT5=
EXTT6=
EXTT7=
EXTT8=
EXTT9=
EXTT10=
EXTT11=
EXTT12=
PLAYORDER=
